<?xml version="1.0" encoding="UTF-8"?> <!-- Generator: Adobe Illustrator 27.3.1, SVG Export Plug-In . SVG Version: 6.00 Build 0) --> <svg xmlns="http://www.w3.org/2000/svg" xmlns:xlink="http://www.w3.org/1999/xlink" version="1.1" id="Ebene_1" x="0px" y="0px" viewBox="0 0 150 150" style="enable-background:new 0 0 150 150;" xml:space="preserve"> <style type="text/css"> .st0{fill:#266041;} </style> <g> <path class="st0" d="M57.2,69.5c2.8-0.1,5.1-2.1,5.6-4.9c0.5-2.1-0.9-4.3-3-4.7c-0.3-0.1-0.7-0.1-1.1-0.1c-2.8,0.1-5.1,2.1-5.6,4.8 c-0.5,2.1,0.8,4.3,3,4.8C56.4,69.5,56.8,69.5,57.2,69.5"></path> <path class="st0" d="M150,85.6c-0.1-0.1-0.3-0.1-0.4,0c-0.9,0.9-2.1,1.4-3.3,1.3c-0.9,0-2.4-0.5-1.6-2.8l4.1-11.9 c0-0.1,0-0.2,0-0.2c-0.1-0.1-0.2-0.2-0.3-0.1c0,0,0,0,0,0h-0.8c-2.5-0.1-4.9,0.8-6.7,2.4c-0.1,0.1-0.3,0.1-0.4,0c0,0,0,0,0,0 c-1.4-1.6-3.5-2.5-5.7-2.4c-6.1,0-11.3,4.1-13,9.9c0,0.2,0,0.4-0.2,0.6v0.1c-1,1.4-2.6,2.4-4.3,2.7c-0.8,0-1.3-0.5-0.8-2 c0.1,0.1,6.4-18.6,7.4-21.7c0-0.1,0-0.1,0-0.2c0-0.1-0.2-0.2-0.3-0.2H123c-4-0.3-7.7,2.2-9,6l-2.5,7.3c0,0,0,0,0,0.1 c-1.4,1.9-3.6,3.1-6,3.4c-0.1,0-0.2,0-0.2,0c0-0.1,0-0.1,0-0.2c-0.6-2.9-3.6-5.8-9-5.8c-6.2-0.1-11.7,3.9-13.7,9.8c0,0,0,0.2,0,0.3 c-2.8,3.5-7.2,5.4-11.6,5c-2-0.2-3.5-1.7-2.4-5.3c0.4-2,2.1-3.6,4.2-3.8c1.5-0.2,2.9,0.8,3.2,2.3c0,0.1,0,0.2,0.1,0.3 c0.1,0,0.1,0,0.2,0h0.4c1.4-0.1,2.6-0.7,3.6-1.6c1.1-1.2,1.5-2.9,0.8-4.4c-1.2-1.7-3.3-2.7-5.4-2.5c-6.4-0.4-12.3,3.3-14.7,9.3l0,0 c0,0.1-0.2,0.6-0.3,1c-1,1.6-2.7,2.6-4.5,3c-0.8,0-1.2-0.4-0.7-2l3.8-10.9c0.1-0.1,0-0.3-0.2-0.4c0,0-0.1,0-0.1,0h-0.8 c-4-0.3-7.6,2.2-8.9,6l-1.1,3.1c-1.2,3.3-4.6,5.2-7.9,4.4c-2-0.5-2.9-2.8-3.5-5.7c0-0.1,0-0.2,0.1-0.3c3.3-2,7.4-5.1,8.4-10.6 c1.2-6.6-3.3-13-13.8-13c-16.4,0-27.8,11-30.7,21.8c-2,7.6,0.4,16.5,9.3,16.5c6.2,0,10.3-2.6,15.1-17.2c0.5-1.4,1.3-3.8,1.7-5 c0-0.1,0-0.2,0-0.2c0-0.1-0.1-0.1-0.3-0.2h-0.8c-2.5,0-7.8,0.7-9.7,6.1c-1.9,5.4-2.4,8.2-5.4,7.9c-2.3-0.3-2.4-5.1-0.9-8.8 c3-7.3,9.8-12.3,17.7-12.9c6.9-0.6,8.5,2.2,7.7,6c-0.7,2.9-3.7,5.4-7.2,6.7c-1,0.4-1.3,0.9-1.2,1.7c0.9,8.3,4.8,15.5,10.2,16 c3.2,0.1,6.2-1.2,8.4-3.5l0,0c0.1-0.1,0.2,0,0.3,0.1c0,0,0,0,0,0l0,0c0.5,2.1,2.4,3.6,4.6,3.4c4,0,7.1-2,10.2-4.9l0,0 c0.1-0.1,0.2,0,0.3,0.1c0,0,0,0,0,0l0.2,0.5c1.7,2.7,4.7,4.4,7.9,4.4c4.9,0.5,9.8-1.4,13.3-4.9l0,0c0.1,0,0.2,0,0.3,0.1 c1.6,3.1,4.9,4.9,8.4,4.8c5.8,0.1,11.1-3.2,13.4-8.5c0.1-0.2,0.2-0.5,0.3-0.7c0,0,0-0.1,0.1-0.1l0,0c1.1-0.2,2.2-0.6,3.1-1.1 c0.1-0.1,0.2-0.1,0.3,0c0,0,0,0,0,0c0,0.1,0,0.1,0,0.2l-0.9,2.5c-1.6,4.7,0.3,7.7,4.2,7.7s6.9-1.9,9.9-4.7l0,0 c0.1-0.1,0.2,0,0.3,0.1c0,0,0,0,0,0c1.2,2.7,3.9,4.5,6.8,4.6c2.7,0.1,5.2-0.8,7.2-2.6l0.1-0.1c0,0,0.2,0,0.3,0.1 c1.1,1.6,2.9,2.5,4.8,2.6c4.1,0.5,7.9-2.2,8.7-6.2c0.2-0.7,0.2-1.3,0.3-2C150,85.8,150,85.7,150,85.6 M97.4,83.1 c-0.4,2.1-2.2,3.7-4.4,3.9c-2.2,0-3.7-1.7-2.7-5.3c0.4-2.1,2.2-3.6,4.3-3.8C96.8,77.9,98.6,79.3,97.4,83.1 M136.8,83.1 c-0.4,2.1-2.1,3.7-4.3,3.9c-2.2,0-3.7-1.7-2.7-5.3c0.4-2.1,2.2-3.6,4.3-3.8C136.3,77.9,138.1,79.3,136.8,83.1"></path> </g> </svg> 